<?xml version="1.0" encoding="UTF-8"?>
<svg id="Layer_2" data-name="Layer 2" xmlns="http://www.w3.org/2000/svg" width="164.75925341" height="164.75925341" viewBox="0 0 164.75925341 164.75925341">
  <g id="Layer_1-2" data-name="Layer 1">
    <path d="m71.54451842,106.18405643c-2.20741684-1.41908068-2.55080253-4.50928124-.70876656-6.37834052l23.61192321-23.95831835c7.94534849-8.06190953,3.26728106-7.31161046-6.19205726-1.09519136,0,0-18.11057634,11.90177692-28.66646616,18.83880569-3.60408732,2.36850307-8.07779811,2.99233308-12.19325954,1.7030583l-15.76335657-4.9382793c-2.68399799-.84083182-4.70900728-3.74696995-2.12238419-4.85160761l81.98262947-35.04735265c5.18906913-2.21603263,11.60496361.02312868,10.6720939,5.58792816l-11.00724464,62.98177751c-.7080239,4.22353838-5.93478084,8.8082875-9.53708484,6.49247659l-30.07602681-19.33495646Zm93.214735-23.80442972C164.75925341,36.88261518,127.87663823,0,82.37962671,0S0,36.88261518,0,82.37962671s36.88261518,82.37962671,82.37962671,82.37962671,82.37962671-36.88261518,82.37962671-82.37962671Z"/>
  </g>
</svg>