<?xml version="1.0" encoding="UTF-8"?>
<svg id="Layer_2" data-name="Layer 2" xmlns="http://www.w3.org/2000/svg" width="179.5751551" height="179.5751551" viewBox="0 0 179.5751551 179.5751551">
  <defs>
    <style>
      .cls-1 {
        fill: none;
        stroke: #000;
        stroke-miterlimit: 10;
        stroke-width: 3px;
      }
    </style>
  </defs>
  <g id="Layer_1-2" data-name="Layer 1">
    <path class="cls-1" d="m78.17541685,115.29916966c-2.36572431-1.5208517-2.7337363-4.83266959-.75959658-6.83577063l25.30527977-25.67651705c8.51515841-8.64007875,3.50159793-7.83597111-6.63612786-1.17373428,0,0-19.4093974,12.75532671-30.72231516,20.18985257-3.86255864,2.53836302-8.65710681,3.20693173-13.06771334,1.82519511l-16.89384404-5.29243375c-2.87648403-.90113305-5.04671922-4.01568826-2.27459344-5.19954629l87.86210919-37.56081435c5.56120926-2.37495799,12.43722708.02478738,11.43745554,5.98867293l-11.796642,67.49858901c-.75880065,4.52643436-6.36040056,9.4399841-10.22104799,6.95809211l-32.23296409-20.72158537Zm99.89973825-25.51159211C178.0751551,41.02769487,138.54746023,1.5,89.78757755,1.5S1.5,41.02769487,1.5,89.78757755s39.52769487,88.28757755,88.28757755,88.28757755,88.28757755-39.52769487,88.28757755-88.28757755Z"/>
  </g>
</svg>