<?xml version="1.0" encoding="UTF-8"?>
<svg id="Layer_2" data-name="Layer 2" xmlns="http://www.w3.org/2000/svg" width="116.16870117" height="176.04541016" viewBox="0 0 116.16870117 176.04541016">
  <defs>
    <style>
      .cls-1 {
        fill: none;
        stroke: #000;
        stroke-miterlimit: 10;
      }
    </style>
  </defs>
  <g id="Layer_1-2" data-name="Layer 1">
    <g>
      <line class="cls-1" x1="61.5" y1="60.04443359" x2="115.08422852" y2="60.04443359"/>
      <polygon points="111.77075195 64.13427734 111.08862305 63.40185547 114.70043945 60.04541016 111.08862305 56.68798828 111.77075195 55.95556641 116.16870117 60.04541016 111.77075195 64.13427734"/>
    </g>
    <g>
      <line class="cls-1" x1="61.5" y1="116" x2="115.08422852" y2="116"/>
      <polygon points="111.77075195 120.08984375 111.08862305 119.35742188 114.70043945 116.00097656 111.08862305 112.64355469 111.77075195 111.91113281 116.16870117 116.00097656 111.77075195 120.08984375"/>
    </g>
    <g>
      <polyline class="cls-1" points="0 88.05761719 61.5 88.05761719 61.5 4.08886719 115.08422852 4.08886719"/>
      <polygon points="111.77075195 8.17871094 111.08862305 7.44628906 114.70043945 4.08984375 111.08862305 .73242188 111.77075195 0 116.16870117 4.08984375 111.77075195 8.17871094"/>
    </g>
    <g>
      <polyline class="cls-1" points="61.5 88.05761719 61.5 171.95556641 115.08422852 171.95556641"/>
      <polygon points="111.77075195 176.04541016 111.08862305 175.31298828 114.70043945 171.95654297 111.08862305 168.59912109 111.77075195 167.86669922 116.16870117 171.95654297 111.77075195 176.04541016"/>
    </g>
  </g>
</svg>